<svg xmlns="http://www.w3.org/2000/svg" width="1200" height="750" viewBox="0 0 1200 750">
  <defs>
    <linearGradient id="bgGrad" x1="0%" y1="0%" x2="100%" y2="100%">
      <stop offset="0%" style="stop-color:#0a0f1e;stop-opacity:1" />
      <stop offset="100%" style="stop-color:#0f1a2e;stop-opacity:1" />
    </linearGradient>
    <linearGradient id="blueGrad" x1="0%" y1="0%" x2="100%" y2="100%">
      <stop offset="0%" style="stop-color:#1d4ed8;stop-opacity:1" />
      <stop offset="100%" style="stop-color:#3b82f6;stop-opacity:1" />
    </linearGradient>
    <linearGradient id="redGrad" x1="0%" y1="0%" x2="100%" y2="100%">
      <stop offset="0%" style="stop-color:#dc2626;stop-opacity:1" />
      <stop offset="100%" style="stop-color:#ef4444;stop-opacity:1" />
    </linearGradient>
    <linearGradient id="greenGrad" x1="0%" y1="0%" x2="100%" y2="100%">
      <stop offset="0%" style="stop-color:#059669;stop-opacity:1" />
      <stop offset="100%" style="stop-color:#10b981;stop-opacity:1" />
    </linearGradient>
    <linearGradient id="purpleGrad" x1="0%" y1="0%" x2="100%" y2="100%">
      <stop offset="0%" style="stop-color:#7c3aed;stop-opacity:1" />
      <stop offset="100%" style="stop-color:#a855f7;stop-opacity:1" />
    </linearGradient>
    <linearGradient id="headerGrad" x1="0%" y1="0%" x2="100%" y2="0%">
      <stop offset="0%" style="stop-color:#0d1b3e;stop-opacity:1" />
      <stop offset="100%" style="stop-color:#162040;stop-opacity:1" />
    </linearGradient>
    <filter id="glow">
      <feGaussianBlur stdDeviation="3" result="coloredBlur"/>
      <feMerge><feMergeNode in="coloredBlur"/><feMergeNode in="SourceGraphic"/></feMerge>
    </filter>
    <filter id="softGlow">
      <feGaussianBlur stdDeviation="12" result="coloredBlur"/>
      <feMerge><feMergeNode in="coloredBlur"/><feMergeNode in="SourceGraphic"/></feMerge>
    </filter>
  </defs>

  <!-- Background -->
  <rect width="1200" height="750" fill="url(#bgGrad)"/>

  <!-- Sidebar -->
  <rect x="0" y="0" width="220" height="750" fill="#0d1526"/>
  <rect x="220" y="0" width="1" height="750" fill="#1e3a5f"/>

  <!-- Sidebar glow accent -->
  <rect x="0" y="0" width="4" height="750" fill="url(#blueGrad)" filter="url(#glow)"/>

  <!-- Logo area -->
  <rect x="16" y="16" width="188" height="50" rx="8" fill="#0a1628"/>
  <circle cx="40" cy="41" r="13" fill="url(#blueGrad)" filter="url(#glow)"/>
  <text x="58" y="46" font-family="system-ui,sans-serif" font-size="14" font-weight="700" fill="#ffffff">Admin Panel</text>

  <!-- Admin badge -->
  <rect x="58" y="52" width="50" height="14" rx="7" fill="#1d4ed8" opacity="0.4"/>
  <text x="83" y="62" font-family="system-ui,sans-serif" font-size="8" fill="#93c5fd" text-anchor="middle">ENTERPRISE</text>

  <!-- Nav items -->
  <rect x="8" y="88" width="204" height="36" rx="8" fill="url(#blueGrad)" opacity="0.2"/>
  <rect x="8" y="88" width="4" height="36" rx="2" fill="url(#blueGrad)" filter="url(#glow)"/>
  <rect x="22" y="96" width="18" height="18" rx="3" fill="#1d4ed8"/>
  <text x="48" y="111" font-family="system-ui,sans-serif" font-size="13" fill="#93c5fd" font-weight="600">Overview</text>

  <rect x="22" y="130" width="18" height="18" rx="3" fill="#1e3a5f"/>
  <text x="48" y="144" font-family="system-ui,sans-serif" font-size="13" fill="#6b7280">Users</text>

  <rect x="22" y="162" width="18" height="18" rx="3" fill="#1e3a5f"/>
  <text x="48" y="176" font-family="system-ui,sans-serif" font-size="13" fill="#6b7280">Agents</text>

  <rect x="22" y="194" width="18" height="18" rx="3" fill="#1e3a5f"/>
  <text x="48" y="208" font-family="system-ui,sans-serif" font-size="13" fill="#6b7280">Billing</text>

  <rect x="22" y="226" width="18" height="18" rx="3" fill="#1e3a5f"/>
  <text x="48" y="240" font-family="system-ui,sans-serif" font-size="13" fill="#6b7280">Wallets</text>

  <rect x="22" y="258" width="18" height="18" rx="3" fill="#1e3a5f"/>
  <text x="48" y="272" font-family="system-ui,sans-serif" font-size="13" fill="#6b7280">Oracles</text>

  <rect x="22" y="290" width="18" height="18" rx="3" fill="#1e3a5f"/>
  <text x="48" y="304" font-family="system-ui,sans-serif" font-size="13" fill="#6b7280">API Keys</text>

  <rect x="22" y="322" width="18" height="18" rx="3" fill="#1e3a5f"/>
  <text x="48" y="336" font-family="system-ui,sans-serif" font-size="13" fill="#6b7280">Audit Logs</text>

  <rect x="22" y="354" width="18" height="18" rx="3" fill="#1e3a5f"/>
  <text x="48" y="368" font-family="system-ui,sans-serif" font-size="13" fill="#6b7280">Settings</text>

  <!-- Logout at bottom -->
  <rect x="8" y="700" width="204" height="36" rx="8" fill="#0a1628"/>
  <text x="48" y="722" font-family="system-ui,sans-serif" font-size="13" fill="#ef4444">Logout</text>

  <!-- Back to Dashboard -->
  <rect x="8" y="656" width="204" height="36" rx="8" fill="#0a1628"/>
  <text x="48" y="678" font-family="system-ui,sans-serif" font-size="13" fill="#6b7280">Back to Dashboard</text>

  <!-- Header bar -->
  <rect x="220" y="0" width="980" height="60" fill="url(#headerGrad)"/>
  <rect x="220" y="60" width="980" height="1" fill="#1e3a5f"/>
  <text x="260" y="36" font-family="system-ui,sans-serif" font-size="18" font-weight="700" fill="#ffffff">System Overview</text>

  <!-- Search bar -->
  <rect x="900" y="15" width="200" height="30" rx="15" fill="#0a1628" stroke="#1e3a5f" stroke-width="1"/>
  <text x="920" y="33" font-family="system-ui,sans-serif" font-size="12" fill="#4b5563">Search…</text>

  <!-- Logout button in header -->
  <text x="1120" y="34" font-family="system-ui,sans-serif" font-size="12" fill="#6b7280" text-anchor="middle">Logout</text>

  <!-- Stats cards -->
  <!-- Card 1: Total Users -->
  <rect x="240" y="80" width="210" height="110" rx="12" fill="#0d1b34"/>
  <rect x="240" y="80" width="210" height="2" rx="1" fill="url(#blueGrad)" opacity="0.8"/>
  <text x="258" y="108" font-family="system-ui,sans-serif" font-size="12" fill="#6b7280">Total Users</text>
  <text x="258" y="144" font-family="system-ui,sans-serif" font-size="30" font-weight="700" fill="#ffffff">1,284</text>
  <text x="258" y="166" font-family="system-ui,sans-serif" font-size="11" fill="#10b981">+12% this month</text>
  <rect x="402" y="93" width="36" height="36" rx="18" fill="#1d4ed8" opacity="0.2"/>
  <rect x="411" y="102" width="18" height="18" rx="2" fill="#3b82f6" filter="url(#glow)"/>

  <!-- Card 2: Active Agents -->
  <rect x="462" y="80" width="210" height="110" rx="12" fill="#0d1b34"/>
  <rect x="462" y="80" width="210" height="2" rx="1" fill="url(#purpleGrad)" opacity="0.8"/>
  <text x="480" y="108" font-family="system-ui,sans-serif" font-size="12" fill="#6b7280">Active Agents</text>
  <text x="480" y="144" font-family="system-ui,sans-serif" font-size="30" font-weight="700" fill="#ffffff">47</text>
  <text x="480" y="166" font-family="system-ui,sans-serif" font-size="11" fill="#10b981">+3 today</text>
  <rect x="624" y="93" width="36" height="36" rx="18" fill="#7c3aed" opacity="0.2"/>
  <rect x="633" y="102" width="18" height="18" rx="2" fill="#a855f7" filter="url(#glow)"/>

  <!-- Card 3: Revenue -->
  <rect x="684" y="80" width="210" height="110" rx="12" fill="#0d1b34"/>
  <rect x="684" y="80" width="210" height="2" rx="1" fill="url(#greenGrad)" opacity="0.8"/>
  <text x="702" y="108" font-family="system-ui,sans-serif" font-size="12" fill="#6b7280">Revenue (MTD)</text>
  <text x="702" y="144" font-family="system-ui,sans-serif" font-size="30" font-weight="700" fill="#ffffff">$8,420</text>
  <text x="702" y="166" font-family="system-ui,sans-serif" font-size="11" fill="#10b981">+18% vs last month</text>
  <rect x="846" y="93" width="36" height="36" rx="18" fill="#059669" opacity="0.2"/>
  <rect x="855" y="102" width="18" height="18" rx="2" fill="#10b981" filter="url(#glow)"/>

  <!-- Card 4: API Calls -->
  <rect x="906" y="80" width="214" height="110" rx="12" fill="#0d1b34"/>
  <rect x="906" y="80" width="214" height="2" rx="1" fill="url(#redGrad)" opacity="0.8"/>
  <text x="924" y="108" font-family="system-ui,sans-serif" font-size="12" fill="#6b7280">API Calls (24h)</text>
  <text x="924" y="144" font-family="system-ui,sans-serif" font-size="30" font-weight="700" fill="#ffffff">93,210</text>
  <text x="924" y="166" font-family="system-ui,sans-serif" font-size="11" fill="#ef4444">-2% vs yesterday</text>
  <rect x="1070" y="93" width="36" height="36" rx="18" fill="#dc2626" opacity="0.2"/>
  <rect x="1079" y="102" width="18" height="18" rx="2" fill="#ef4444" filter="url(#glow)"/>

  <!-- Recent Activity panel (2/3 width) -->
  <rect x="240" y="208" width="580" height="270" rx="12" fill="#0d1b34"/>
  <rect x="240" y="208" width="580" height="1" rx="0" fill="#1e3a5f"/>
  <text x="258" y="238" font-family="system-ui,sans-serif" font-size="15" font-weight="600" fill="#ffffff">Recent Activity</text>
  <rect x="240" y="250" width="580" height="1" fill="#1e3a5f"/>

  <!-- Activity rows -->
  <text x="258" y="278" font-family="system-ui,sans-serif" font-size="13" fill="#e2e8f0">New user registered</text>
  <text x="258" y="294" font-family="system-ui,sans-serif" font-size="11" fill="#4b5563">alice@example.com</text>
  <text x="760" y="282" font-family="system-ui,sans-serif" font-size="11" fill="#4b5563" text-anchor="end">2 min ago</text>
  <rect x="240" y="304" width="580" height="1" fill="#1e3a5f"/>

  <text x="258" y="327" font-family="system-ui,sans-serif" font-size="13" fill="#e2e8f0">Agent deployed</text>
  <text x="258" y="343" font-family="system-ui,sans-serif" font-size="11" fill="#4b5563">bob@example.com</text>
  <text x="760" y="331" font-family="system-ui,sans-serif" font-size="11" fill="#4b5563" text-anchor="end">15 min ago</text>
  <rect x="240" y="352" width="580" height="1" fill="#1e3a5f"/>

  <text x="258" y="375" font-family="system-ui,sans-serif" font-size="13" fill="#e2e8f0">Payment received</text>
  <text x="258" y="391" font-family="system-ui,sans-serif" font-size="11" fill="#4b5563">carol@example.com</text>
  <text x="760" y="379" font-family="system-ui,sans-serif" font-size="11" fill="#4b5563" text-anchor="end">1 hr ago</text>
  <rect x="240" y="400" width="580" height="1" fill="#1e3a5f"/>

  <text x="258" y="423" font-family="system-ui,sans-serif" font-size="13" fill="#e2e8f0">API key created</text>
  <text x="258" y="439" font-family="system-ui,sans-serif" font-size="11" fill="#4b5563">dave@example.com</text>
  <text x="760" y="427" font-family="system-ui,sans-serif" font-size="11" fill="#4b5563" text-anchor="end">3 hr ago</text>
  <rect x="240" y="448" width="580" height="1" fill="#1e3a5f"/>

  <text x="258" y="471" font-family="system-ui,sans-serif" font-size="13" fill="#e2e8f0">User banned</text>
  <text x="258" y="487" font-family="system-ui,sans-serif" font-size="11" fill="#4b5563">eve@example.com</text>
  <text x="760" y="475" font-family="system-ui,sans-serif" font-size="11" fill="#4b5563" text-anchor="end">5 hr ago</text>

  <!-- System Health panel (1/3 width) -->
  <rect x="836" y="208" width="284" height="270" rx="12" fill="#0d1b34"/>
  <text x="854" y="238" font-family="system-ui,sans-serif" font-size="15" font-weight="600" fill="#ffffff">System Health</text>
  <rect x="836" y="250" width="284" height="1" fill="#1e3a5f"/>

  <!-- Health rows -->
  <text x="854" y="282" font-family="system-ui,sans-serif" font-size="13" fill="#d1d5db">API</text>
  <circle cx="1082" cy="277" r="6" fill="#10b981" filter="url(#glow)"/>
  <text x="1096" y="282" font-family="system-ui,sans-serif" font-size="11" fill="#10b981">operational</text>

  <text x="854" y="324" font-family="system-ui,sans-serif" font-size="13" fill="#d1d5db">Database</text>
  <circle cx="1082" cy="319" r="6" fill="#10b981" filter="url(#glow)"/>
  <text x="1096" y="324" font-family="system-ui,sans-serif" font-size="11" fill="#10b981">operational</text>

  <text x="854" y="366" font-family="system-ui,sans-serif" font-size="13" fill="#d1d5db">Auth</text>
  <circle cx="1082" cy="361" r="6" fill="#10b981" filter="url(#glow)"/>
  <text x="1096" y="366" font-family="system-ui,sans-serif" font-size="11" fill="#10b981">operational</text>

  <text x="854" y="408" font-family="system-ui,sans-serif" font-size="13" fill="#d1d5db">Storage</text>
  <circle cx="1082" cy="403" r="6" fill="#f59e0b" filter="url(#glow)"/>
  <text x="1096" y="408" font-family="system-ui,sans-serif" font-size="11" fill="#f59e0b">degraded</text>

  <!-- Uptime display -->
  <rect x="854" y="440" width="246" height="28" rx="14" fill="#0a1628" stroke="#1e3a5f" stroke-width="1"/>
  <rect x="854" y="440" width="209" height="28" rx="14" fill="#059669" opacity="0.3"/>
  <text x="977" y="458" font-family="system-ui,sans-serif" font-size="11" fill="#10b981" text-anchor="middle">Uptime: 99.8% (30d)</text>

  <!-- User Management table -->
  <rect x="240" y="494" width="880" height="170" rx="12" fill="#0d1b34"/>
  <text x="258" y="524" font-family="system-ui,sans-serif" font-size="15" font-weight="600" fill="#ffffff">User Management</text>
  <rect x="902" y="510" width="100" height="26" rx="13" fill="url(#blueGrad)" filter="url(#glow)"/>
  <text x="952" y="527" font-family="system-ui,sans-serif" font-size="11" fill="#ffffff" text-anchor="middle" font-weight="600">+ Add User</text>
  <rect x="240" y="536" width="880" height="1" fill="#1e3a5f"/>

  <!-- Table header -->
  <rect x="240" y="537" width="880" height="28" fill="#081020"/>
  <text x="260" y="555" font-family="system-ui,sans-serif" font-size="11" fill="#4b5563" font-weight="600">USER</text>
  <text x="500" y="555" font-family="system-ui,sans-serif" font-size="11" fill="#4b5563" font-weight="600">ROLE</text>
  <text x="660" y="555" font-family="system-ui,sans-serif" font-size="11" fill="#4b5563" font-weight="600">STATUS</text>
  <text x="840" y="555" font-family="system-ui,sans-serif" font-size="11" fill="#4b5563" font-weight="600">ACTIONS</text>

  <!-- Table rows -->
  <rect x="240" y="565" width="880" height="30" fill="transparent"/>
  <text x="260" y="584" font-family="system-ui,sans-serif" font-size="12" fill="#e2e8f0">alice@example.com</text>
  <rect x="488" y="572" width="60" height="16" rx="8" fill="#1d4ed8" opacity="0.4"/>
  <text x="518" y="583" font-family="system-ui,sans-serif" font-size="10" fill="#93c5fd" text-anchor="middle">Admin</text>
  <rect x="648" y="572" width="60" height="16" rx="8" fill="#065f46"/>
  <text x="678" y="583" font-family="system-ui,sans-serif" font-size="10" fill="#6ee7b7" text-anchor="middle">Active</text>
  <text x="840" y="584" font-family="system-ui,sans-serif" font-size="11" fill="#3b82f6">Edit · Ban</text>

  <rect x="240" y="595" width="880" height="1" fill="#1e3a5f"/>
  <rect x="240" y="596" width="880" height="30" fill="#060e1d" opacity="0.3"/>
  <text x="260" y="615" font-family="system-ui,sans-serif" font-size="12" fill="#e2e8f0">bob@example.com</text>
  <rect x="488" y="603" width="70" height="16" rx="8" fill="#7c3aed" opacity="0.4"/>
  <text x="523" y="614" font-family="system-ui,sans-serif" font-size="10" fill="#c4b5fd" text-anchor="middle">Developer</text>
  <rect x="648" y="603" width="60" height="16" rx="8" fill="#065f46"/>
  <text x="678" y="614" font-family="system-ui,sans-serif" font-size="10" fill="#6ee7b7" text-anchor="middle">Active</text>
  <text x="840" y="615" font-family="system-ui,sans-serif" font-size="11" fill="#3b82f6">Edit · Ban</text>

  <rect x="240" y="626" width="880" height="1" fill="#1e3a5f"/>
  <text x="260" y="648" font-family="system-ui,sans-serif" font-size="12" fill="#e2e8f0">carol@example.com</text>
  <rect x="488" y="634" width="50" height="16" rx="8" fill="#4b5563" opacity="0.6"/>
  <text x="513" y="645" font-family="system-ui,sans-serif" font-size="10" fill="#d1d5db" text-anchor="middle">User</text>
  <rect x="648" y="634" width="60" height="16" rx="8" fill="#7f1d1d"/>
  <text x="678" y="645" font-family="system-ui,sans-serif" font-size="10" fill="#fca5a5" text-anchor="middle">Suspended</text>
  <text x="840" y="648" font-family="system-ui,sans-serif" font-size="11" fill="#3b82f6">Edit · Restore</text>

  <!-- Ambient glow effects -->
  <circle cx="600" cy="400" r="350" fill="#1d4ed8" opacity="0.02" filter="url(#softGlow)"/>
  <circle cx="1100" cy="100" r="200" fill="#3b82f6" opacity="0.04" filter="url(#softGlow)"/>

  <!-- Label overlay -->
  <rect x="0" y="720" width="1200" height="30" fill="#04080f" opacity="0.9"/>
  <text x="600" y="740" font-family="system-ui,sans-serif" font-size="12" fill="#4b5563" text-anchor="middle">AiFarcaster — Admin Dashboard · Enterprise System Overview &amp; User Management</text>
</svg>
