<svg xmlns="http://www.w3.org/2000/svg" width="1200" height="750" viewBox="0 0 1200 750">
  <defs>
    <linearGradient id="bgGrad" x1="0%" y1="0%" x2="100%" y2="100%">
      <stop offset="0%" style="stop-color:#0f0f1a;stop-opacity:1" />
      <stop offset="100%" style="stop-color:#1a1028;stop-opacity:1" />
    </linearGradient>
    <linearGradient id="purpleGrad" x1="0%" y1="0%" x2="100%" y2="100%">
      <stop offset="0%" style="stop-color:#7c3aed;stop-opacity:1" />
      <stop offset="100%" style="stop-color:#a855f7;stop-opacity:1" />
    </linearGradient>
    <linearGradient id="blueGrad" x1="0%" y1="0%" x2="100%" y2="100%">
      <stop offset="0%" style="stop-color:#2563eb;stop-opacity:1" />
      <stop offset="100%" style="stop-color:#3b82f6;stop-opacity:1" />
    </linearGradient>
    <linearGradient id="greenGrad" x1="0%" y1="0%" x2="100%" y2="100%">
      <stop offset="0%" style="stop-color:#059669;stop-opacity:1" />
      <stop offset="100%" style="stop-color:#10b981;stop-opacity:1" />
    </linearGradient>
    <linearGradient id="orangeGrad" x1="0%" y1="0%" x2="100%" y2="100%">
      <stop offset="0%" style="stop-color:#d97706;stop-opacity:1" />
      <stop offset="100%" style="stop-color:#f59e0b;stop-opacity:1" />
    </linearGradient>
    <filter id="glow">
      <feGaussianBlur stdDeviation="3" result="coloredBlur"/>
      <feMerge><feMergeNode in="coloredBlur"/><feMergeNode in="SourceGraphic"/></feMerge>
    </filter>
    <filter id="softGlow">
      <feGaussianBlur stdDeviation="8" result="coloredBlur"/>
      <feMerge><feMergeNode in="coloredBlur"/><feMergeNode in="SourceGraphic"/></feMerge>
    </filter>
  </defs>

  <!-- Background -->
  <rect width="1200" height="750" fill="url(#bgGrad)"/>

  <!-- Sidebar -->
  <rect x="0" y="0" width="220" height="750" fill="#12111f" rx="0"/>
  <rect x="220" y="0" width="1" height="750" fill="#2d2b45"/>

  <!-- Sidebar glow accent -->
  <rect x="0" y="0" width="4" height="750" fill="url(#purpleGrad)" filter="url(#glow)"/>

  <!-- Logo area -->
  <rect x="20" y="20" width="180" height="50" rx="8" fill="#1e1b35"/>
  <circle cx="45" cy="45" r="14" fill="url(#purpleGrad)" filter="url(#glow)"/>
  <text x="65" y="50" font-family="system-ui,sans-serif" font-size="16" font-weight="700" fill="#ffffff">AiFarcaster</text>

  <!-- Nav items -->
  <rect x="10" y="90" width="200" height="38" rx="8" fill="url(#purpleGrad)" opacity="0.2"/>
  <rect x="10" y="90" width="4" height="38" rx="2" fill="url(#purpleGrad)" filter="url(#glow)"/>
  <text x="50" y="113" font-family="system-ui,sans-serif" font-size="13" fill="#c4b5fd" font-weight="600">Overview</text>

  <text x="50" y="148" font-family="system-ui,sans-serif" font-size="13" fill="#6b7280">Frames</text>
  <text x="50" y="183" font-family="system-ui,sans-serif" font-size="13" fill="#6b7280">Projects</text>
  <text x="50" y="218" font-family="system-ui,sans-serif" font-size="13" fill="#6b7280">Templates</text>
  <text x="50" y="253" font-family="system-ui,sans-serif" font-size="13" fill="#6b7280">AI Prompts</text>
  <text x="50" y="288" font-family="system-ui,sans-serif" font-size="13" fill="#6b7280">Tools</text>

  <!-- Sidebar icons (simplified squares) -->
  <rect x="22" y="130" width="16" height="16" rx="3" fill="#4b5563"/>
  <rect x="22" y="165" width="16" height="16" rx="3" fill="#4b5563"/>
  <rect x="22" y="200" width="16" height="16" rx="3" fill="#4b5563"/>
  <rect x="22" y="235" width="16" height="16" rx="3" fill="#4b5563"/>
  <rect x="22" y="270" width="16" height="16" rx="3" fill="#4b5563"/>

  <!-- Quick Actions label -->
  <text x="20" y="330" font-family="system-ui,sans-serif" font-size="11" fill="#4b5563" font-weight="600" text-transform="uppercase">QUICK ACTIONS</text>
  <rect x="10" y="340" width="200" height="34" rx="6" fill="#1e1b35"/>
  <text x="40" y="362" font-family="system-ui,sans-serif" font-size="12" fill="#9ca3af">Airdrop</text>
  <rect x="10" y="380" width="200" height="34" rx="6" fill="#1e1b35"/>
  <text x="40" y="402" font-family="system-ui,sans-serif" font-size="12" fill="#9ca3af">Monitor</text>
  <rect x="10" y="420" width="200" height="34" rx="6" fill="#1e1b35"/>
  <text x="40" y="442" font-family="system-ui,sans-serif" font-size="12" fill="#9ca3af">Track PNL</text>
  <rect x="10" y="460" width="200" height="34" rx="6" fill="#1e1b35"/>
  <text x="40" y="482" font-family="system-ui,sans-serif" font-size="12" fill="#a78bfa">Admin Panel</text>

  <!-- Main content area -->
  <!-- Header bar -->
  <rect x="220" y="0" width="980" height="62" fill="#12111f"/>
  <rect x="220" y="62" width="980" height="1" fill="#2d2b45"/>
  <text x="260" y="38" font-family="system-ui,sans-serif" font-size="18" font-weight="700" fill="#ffffff">Overview</text>

  <!-- Connect wallet button -->
  <rect x="1060" y="14" width="120" height="34" rx="17" fill="url(#purpleGrad)" filter="url(#glow)"/>
  <text x="1120" y="35" font-family="system-ui,sans-serif" font-size="12" fill="#ffffff" text-anchor="middle" font-weight="600">Connect Wallet</text>

  <!-- Stats cards row -->
  <!-- Card 1: Total Frames -->
  <rect x="240" y="82" width="210" height="110" rx="12" fill="#1a1830"/>
  <rect x="240" y="82" width="210" height="2" rx="1" fill="url(#purpleGrad)" opacity="0.7"/>
  <text x="260" y="112" font-family="system-ui,sans-serif" font-size="12" fill="#9ca3af">Total Frames</text>
  <text x="260" y="148" font-family="system-ui,sans-serif" font-size="32" font-weight="700" fill="#ffffff">12</text>
  <text x="260" y="170" font-family="system-ui,sans-serif" font-size="12" fill="#10b981">+3 this week</text>
  <rect x="395" y="95" width="40" height="40" rx="20" fill="#7c3aed" opacity="0.2"/>
  <rect x="405" y="105" width="20" height="20" rx="3" fill="#7c3aed" filter="url(#glow)"/>

  <!-- Card 2: Active Projects -->
  <rect x="464" y="82" width="210" height="110" rx="12" fill="#1a1830"/>
  <rect x="464" y="82" width="210" height="2" rx="1" fill="url(#blueGrad)" opacity="0.7"/>
  <text x="484" y="112" font-family="system-ui,sans-serif" font-size="12" fill="#9ca3af">Active Projects</text>
  <text x="484" y="148" font-family="system-ui,sans-serif" font-size="32" font-weight="700" fill="#ffffff">5</text>
  <text x="484" y="170" font-family="system-ui,sans-serif" font-size="12" fill="#10b981">+1 this month</text>
  <rect x="619" y="95" width="40" height="40" rx="20" fill="#2563eb" opacity="0.2"/>
  <rect x="629" y="105" width="20" height="20" rx="3" fill="#3b82f6" filter="url(#glow)"/>

  <!-- Card 3: Engagement -->
  <rect x="688" y="82" width="210" height="110" rx="12" fill="#1a1830"/>
  <rect x="688" y="82" width="210" height="2" rx="1" fill="url(#greenGrad)" opacity="0.7"/>
  <text x="708" y="112" font-family="system-ui,sans-serif" font-size="12" fill="#9ca3af">Engagement</text>
  <text x="708" y="148" font-family="system-ui,sans-serif" font-size="32" font-weight="700" fill="#ffffff">1.2K</text>
  <text x="708" y="170" font-family="system-ui,sans-serif" font-size="12" fill="#10b981">+15% this week</text>
  <rect x="843" y="95" width="40" height="40" rx="20" fill="#059669" opacity="0.2"/>
  <rect x="853" y="105" width="20" height="20" rx="3" fill="#10b981" filter="url(#glow)"/>

  <!-- Card 4: Revenue -->
  <rect x="912" y="82" width="210" height="110" rx="12" fill="#1a1830"/>
  <rect x="912" y="82" width="210" height="2" rx="1" fill="url(#orangeGrad)" opacity="0.7"/>
  <text x="932" y="112" font-family="system-ui,sans-serif" font-size="12" fill="#9ca3af">Revenue</text>
  <text x="932" y="148" font-family="system-ui,sans-serif" font-size="32" font-weight="700" fill="#ffffff">$420</text>
  <text x="932" y="170" font-family="system-ui,sans-serif" font-size="12" fill="#10b981">+$120 this month</text>
  <rect x="1067" y="95" width="40" height="40" rx="20" fill="#d97706" opacity="0.2"/>
  <rect x="1077" y="105" width="20" height="20" rx="3" fill="#f59e0b" filter="url(#glow)"/>

  <!-- Quick Actions panel -->
  <rect x="240" y="210" width="882" height="100" rx="12" fill="#1a1830"/>
  <text x="260" y="238" font-family="system-ui,sans-serif" font-size="15" font-weight="600" fill="#ffffff">Quick Actions</text>
  <rect x="260" y="252" width="180" height="42" rx="8" fill="#252340" stroke="#3b3668" stroke-width="1"/>
  <text x="350" y="278" font-family="system-ui,sans-serif" font-size="12" fill="#c4b5fd" text-anchor="middle">New Frame</text>
  <rect x="454" y="252" width="180" height="42" rx="8" fill="#252340" stroke="#3b3668" stroke-width="1"/>
  <text x="544" y="278" font-family="system-ui,sans-serif" font-size="12" fill="#93c5fd" text-anchor="middle">New Project</text>
  <rect x="648" y="252" width="180" height="42" rx="8" fill="#252340" stroke="#3b3668" stroke-width="1"/>
  <text x="738" y="278" font-family="system-ui,sans-serif" font-size="12" fill="#a7f3d0" text-anchor="middle">Browse Templates</text>
  <rect x="842" y="252" width="180" height="42" rx="8" fill="#252340" stroke="#3b3668" stroke-width="1"/>
  <text x="932" y="278" font-family="system-ui,sans-serif" font-size="12" fill="#fcd34d" text-anchor="middle">AI Assistant</text>

  <!-- Recent Activity panel -->
  <rect x="240" y="328" width="540" height="230" rx="12" fill="#1a1830"/>
  <rect x="240" y="328" width="540" height="1" rx="0" fill="#2d2b45"/>
  <text x="260" y="358" font-family="system-ui,sans-serif" font-size="15" font-weight="600" fill="#ffffff">Recent Activity</text>
  <rect x="240" y="370" width="540" height="1" fill="#2d2b45"/>

  <!-- Activity items -->
  <text x="260" y="398" font-family="system-ui,sans-serif" font-size="13" fill="#e5e7eb">Frame created: Token Launch</text>
  <text x="260" y="414" font-family="system-ui,sans-serif" font-size="11" fill="#6b7280">2 hours ago</text>
  <rect x="690" y="385" width="70" height="20" rx="10" fill="#7c3aed" opacity="0.3"/>
  <text x="725" y="399" font-family="system-ui,sans-serif" font-size="10" fill="#c4b5fd" text-anchor="middle">frame</text>
  <rect x="240" y="420" width="540" height="1" fill="#2d2b45"/>

  <text x="260" y="443" font-family="system-ui,sans-serif" font-size="13" fill="#e5e7eb">Template purchased: NFT Gallery</text>
  <text x="260" y="459" font-family="system-ui,sans-serif" font-size="11" fill="#6b7280">5 hours ago</text>
  <rect x="690" y="430" width="70" height="20" rx="10" fill="#7c3aed" opacity="0.3"/>
  <text x="725" y="444" font-family="system-ui,sans-serif" font-size="10" fill="#c4b5fd" text-anchor="middle">template</text>
  <rect x="240" y="465" width="540" height="1" fill="#2d2b45"/>

  <text x="260" y="488" font-family="system-ui,sans-serif" font-size="13" fill="#e5e7eb">Project deployed: Community Hub</text>
  <text x="260" y="504" font-family="system-ui,sans-serif" font-size="11" fill="#6b7280">1 day ago</text>
  <rect x="690" y="475" width="70" height="20" rx="10" fill="#7c3aed" opacity="0.3"/>
  <text x="725" y="489" font-family="system-ui,sans-serif" font-size="10" fill="#c4b5fd" text-anchor="middle">project</text>
  <rect x="240" y="510" width="540" height="1" fill="#2d2b45"/>

  <text x="260" y="533" font-family="system-ui,sans-serif" font-size="13" fill="#e5e7eb">Airdrop completed: 100 participants</text>
  <text x="260" y="549" font-family="system-ui,sans-serif" font-size="11" fill="#6b7280">2 days ago</text>
  <rect x="690" y="520" width="70" height="20" rx="10" fill="#7c3aed" opacity="0.3"/>
  <text x="725" y="534" font-family="system-ui,sans-serif" font-size="10" fill="#c4b5fd" text-anchor="middle">airdrop</text>

  <!-- Frames Timeline panel -->
  <rect x="796" y="328" width="326" height="230" rx="12" fill="#1a1830"/>
  <text x="816" y="358" font-family="system-ui,sans-serif" font-size="15" font-weight="600" fill="#ffffff">Frames Timeline</text>
  <rect x="796" y="370" width="326" height="1" fill="#2d2b45"/>

  <!-- Frame cards -->
  <rect x="816" y="382" width="286" height="56" rx="8" fill="#252340" stroke="#3b3668" stroke-width="1"/>
  <text x="832" y="403" font-family="system-ui,sans-serif" font-size="13" font-weight="600" fill="#e5e7eb">Token Launch Frame</text>
  <rect x="990" y="388" width="42" height="18" rx="9" fill="#065f46"/>
  <text x="1011" y="400" font-family="system-ui,sans-serif" font-size="9" fill="#6ee7b7" text-anchor="middle">Active</text>
  <text x="832" y="424" font-family="system-ui,sans-serif" font-size="11" fill="#6b7280">342 views · 89 interactions</text>

  <rect x="816" y="446" width="286" height="56" rx="8" fill="#252340" stroke="#3b3668" stroke-width="1"/>
  <text x="832" y="467" font-family="system-ui,sans-serif" font-size="13" font-weight="600" fill="#e5e7eb">NFT Mint Frame</text>
  <rect x="1002" y="452" width="42" height="18" rx="9" fill="#374151"/>
  <text x="1023" y="464" font-family="system-ui,sans-serif" font-size="9" fill="#9ca3af" text-anchor="middle">Draft</text>
  <text x="832" y="488" font-family="system-ui,sans-serif" font-size="11" fill="#6b7280">0 views · 0 interactions</text>

  <rect x="816" y="508" width="286" height="44" rx="8" fill="#252340" stroke="#3b3668" stroke-width="1"/>
  <text x="832" y="529" font-family="system-ui,sans-serif" font-size="13" font-weight="600" fill="#e5e7eb">Community Poll</text>
  <rect x="996" y="514" width="42" height="18" rx="9" fill="#065f46"/>
  <text x="1017" y="526" font-family="system-ui,sans-serif" font-size="9" fill="#6ee7b7" text-anchor="middle">Active</text>
  <text x="832" y="543" font-family="system-ui,sans-serif" font-size="11" fill="#6b7280">567 views · 234 interactions</text>

  <!-- Bottom section - AI Prompts preview -->
  <rect x="240" y="574" width="882" height="90" rx="12" fill="#1a1830"/>
  <text x="260" y="604" font-family="system-ui,sans-serif" font-size="15" font-weight="600" fill="#ffffff">AI Prompt Ideas</text>
  <rect x="260" y="618" width="200" height="28" rx="14" fill="#252340" stroke="#7c3aed" stroke-width="1"/>
  <text x="360" y="636" font-family="system-ui,sans-serif" font-size="11" fill="#c4b5fd" text-anchor="middle">Token Launch Frame</text>
  <rect x="474" y="618" width="200" height="28" rx="14" fill="#252340" stroke="#7c3aed" stroke-width="1"/>
  <text x="574" y="636" font-family="system-ui,sans-serif" font-size="11" fill="#c4b5fd" text-anchor="middle">NFT Minting Page</text>
  <rect x="688" y="618" width="200" height="28" rx="14" fill="#252340" stroke="#7c3aed" stroke-width="1"/>
  <text x="788" y="636" font-family="system-ui,sans-serif" font-size="11" fill="#c4b5fd" text-anchor="middle">Community Airdrop</text>
  <rect x="902" y="618" width="200" height="28" rx="14" fill="#252340" stroke="#7c3aed" stroke-width="1"/>
  <text x="1002" y="636" font-family="system-ui,sans-serif" font-size="11" fill="#c4b5fd" text-anchor="middle">DAO Governance Poll</text>

  <!-- Neo-Glow ambient effects -->
  <circle cx="600" cy="375" r="300" fill="#7c3aed" opacity="0.03" filter="url(#softGlow)"/>
  <circle cx="240" cy="750" r="200" fill="#a855f7" opacity="0.04" filter="url(#softGlow)"/>

  <!-- Label overlay -->
  <rect x="0" y="720" width="1200" height="30" fill="#0a0916" opacity="0.9"/>
  <text x="600" y="740" font-family="system-ui,sans-serif" font-size="12" fill="#6b7280" text-anchor="middle">AiFarcaster — User Dashboard · AI-Powered Farcaster Frame Builder &amp; Token Launcher</text>
</svg>
